<?xml version="1.0" encoding="UTF-8"?>
<svg width="98px" height="31px" viewBox="0 0 98 31" version="1.1" xmlns="http://www.w3.org/2000/svg" xmlns:xlink="http://www.w3.org/1999/xlink">
    <!-- Generator: Sketch 54 (76480) - https://sketchapp.com -->
    <title>Group 4</title>
    <desc>Created with Sketch.</desc>
    <defs>
        <linearGradient x1="32.696927%" y1="22.3696853%" x2="76.6819012%" y2="85.1352047%" id="linearGradient-1">
            <stop stop-color="#FFFFFF" offset="0%"></stop>
            <stop stop-color="#D7D3FF" offset="100%"></stop>
        </linearGradient>
    </defs>
    <g id="Page-1" stroke="none" stroke-width="1" fill="none" fill-rule="evenodd">
        <g id="1" transform="translate(-70.000000, -38.000000)">
            <g id="Group-4" transform="translate(70.000000, 38.000000)">
                <path d="M39.7177579,20.5169982 C39.5076814,20.5169982 39.3355379,20.4557268 39.2013223,20.3331821 C39.0671068,20.2106375 39,20.038494 39,19.8167466 L39,8.70025165 C39,8.47850418 39.0671068,8.30636071 39.2013223,8.18381606 C39.3355379,8.06127141 39.5076814,8 39.7177579,8 C39.9161636,8 40.0824717,8.06127141 40.2166872,8.18381606 C40.3509028,8.30636071 40.4180096,8.47850418 40.4180096,8.70025165 L40.4180096,19.8167466 C40.4180096,20.038494 40.3509028,20.2106375 40.2166872,20.3331821 C40.0824717,20.4557268 39.9161636,20.5169982 39.7177579,20.5169982 Z M47.6393547,11.6938274 C49.7751329,11.6938274 50.843006,12.8142189 50.843006,15.0550354 L50.843006,19.8167466 C50.843006,20.0268231 50.7817346,20.1960489 50.6591899,20.324429 C50.5366453,20.4528091 50.3703372,20.5169982 50.1602606,20.5169982 C49.9501841,20.5169982 49.7809583,20.4528091 49.6525782,20.324429 C49.5241981,20.1960489 49.460009,20.0268231 49.460009,19.8167466 L49.460009,18.9764446 C49.2382615,19.4782941 48.8998099,19.8663463 48.4446441,20.1406129 C47.9894783,20.4148795 47.4642948,20.5520108 46.8690779,20.5520108 C46.3205447,20.5520108 45.815785,20.4411387 45.3547837,20.2193913 C44.8937824,19.9976438 44.5290716,19.6883691 44.2606405,19.2915578 C43.9922094,18.8947466 43.8579958,18.4570937 43.8579958,17.978586 C43.8579958,17.3366854 44.0213862,16.8377611 44.348172,16.4817981 C44.6749577,16.125835 45.2118119,15.8690787 45.9587507,15.7115213 C46.7056896,15.5539639 47.7443858,15.4751863 49.0748706,15.4751863 L49.460009,15.4751863 L49.460009,14.8974787 C49.460009,14.1972236 49.3170424,13.6837108 49.0311049,13.3569251 C48.7451673,13.0301394 48.2812553,12.866749 47.6393547,12.866749 C46.8457322,12.866749 46.0404509,13.0826577 45.2234865,13.5144817 C44.9083717,13.7128874 44.6866276,13.8120887 44.5582475,13.8120887 C44.4181964,13.8120887 44.301489,13.7595703 44.2081216,13.6545321 C44.1147543,13.5494938 44.0680713,13.4152802 44.0680713,13.2518874 C44.0680713,13.0884945 44.117672,12.9455279 44.2168748,12.8229832 C44.3160776,12.7004386 44.4765503,12.5749781 44.6982978,12.446598 C45.10678,12.2131796 45.570692,12.0293654 46.0900479,11.8951498 C46.6094038,11.7609342 47.1258343,11.6938274 47.6393547,11.6938274 Z M47.0616471,19.4316081 C47.7619022,19.4316081 48.3366864,19.1952756 48.7860168,18.7226034 C49.2353472,18.2499311 49.460009,17.6401348 49.460009,16.8931959 L49.460009,16.3855135 L49.1448957,16.3855135 C48.1178549,16.3855135 47.335915,16.4292788 46.7990527,16.5168107 C46.2621904,16.6043426 45.8799736,16.7502269 45.6523907,16.9544679 C45.4248077,17.158709 45.311018,17.4592307 45.311018,17.8560419 C45.311018,18.3112078 45.4773261,18.6875893 45.8099473,18.9851977 C46.1425685,19.2828062 46.5597976,19.4316081 47.0616471,19.4316081 Z M60.6727885,12.1664973 C60.8011686,11.8863952 61.0054066,11.7463463 61.2855087,11.7463463 C61.4605725,11.7463463 61.6181275,11.8047 61.7581786,11.9214092 C61.8982296,12.0381184 61.968254,12.1840027 61.968254,12.3590665 C61.968254,12.4641048 61.9449126,12.5574707 61.8982289,12.6391672 L58.4845021,19.9918095 C58.4144766,20.1435314 58.3094399,20.2631565 58.1693889,20.3506884 C58.0293378,20.4382203 57.8776182,20.4819856 57.7142253,20.4819856 C57.5625033,20.4819856 57.416619,20.4382203 57.276568,20.3506884 C57.136517,20.2631565 57.0256449,20.1435314 56.9439485,19.9918095 L53.547728,12.6391672 C53.5010443,12.5574707 53.4777028,12.4699402 53.4777028,12.3765728 C53.4777028,12.201509 53.5564803,12.0497893 53.7140377,11.9214092 C53.8715952,11.7930291 54.0437386,11.72884 54.2304733,11.72884 C54.3471825,11.72884 54.4609723,11.7638523 54.571846,11.8338778 C54.6827197,11.9039033 54.7673326,12.0031046 54.8256872,12.1314847 L57.7492379,18.6963439 L60.6727885,12.1664973 Z M65.3382151,20.5169982 C65.1281386,20.5169982 64.9559951,20.4557268 64.8217795,20.3331821 C64.6875639,20.2106375 64.6204572,20.038494 64.6204572,19.8167466 L64.6204572,12.4290917 C64.6204572,12.2073442 64.6875639,12.0352007 64.8217795,11.9126561 C64.9559951,11.7901114 65.1281386,11.72884 65.3382151,11.72884 C65.5482916,11.72884 65.7175174,11.7901114 65.8458975,11.9126561 C65.9742777,12.0352007 66.0384667,12.2073442 66.0384667,12.4290917 L66.0384667,19.8167466 C66.0384667,20.0501649 65.9742777,20.2252261 65.8458975,20.3419353 C65.7175174,20.4586445 65.5482916,20.5169982 65.3382151,20.5169982 Z M65.3382151,9.89067945 C65.058113,9.89067945 64.8305335,9.80898424 64.6554697,9.64559137 C64.480406,9.4821985 64.3928754,9.26628974 64.3928754,8.9978586 C64.3928754,8.74109838 64.480406,8.53102498 64.6554697,8.36763212 C64.8305335,8.20423925 65.058113,8.12254404 65.3382151,8.12254404 C65.6183172,8.12254404 65.8458967,8.20423925 66.0209605,8.36763212 C66.1960242,8.53102498 66.2835548,8.74109838 66.2835548,8.9978586 C66.2835548,9.26628974 66.1960242,9.4821985 66.0209605,9.64559137 C65.8458967,9.80898424 65.6183172,9.89067945 65.3382151,9.89067945 Z M74.0651013,11.6938274 C76.1075121,11.6938274 77.1287022,12.8200542 77.1287022,15.0725416 L77.1287022,19.8167466 C77.1287022,20.038494 77.0674308,20.2106375 76.9448862,20.3331821 C76.8223415,20.4557268 76.650198,20.5169982 76.4284506,20.5169982 C76.2067031,20.5169982 76.0316419,20.4557268 75.9032618,20.3331821 C75.7748817,20.2106375 75.7106926,20.038494 75.7106926,19.8167466 L75.7106926,15.1600731 C75.7106926,14.3664506 75.5560553,13.7887488 75.2467759,13.4269503 C74.9374966,13.0651518 74.4444076,12.8842552 73.7674943,12.8842552 C72.9855427,12.8842552 72.3611579,13.1235055 71.8943212,13.6020132 C71.4274844,14.0805209 71.1940695,14.7282472 71.1940695,15.5452115 L71.1940695,19.8167466 C71.1940695,20.038494 71.1327981,20.2106375 71.0102534,20.3331821 C70.8877088,20.4557268 70.7155653,20.5169982 70.4938179,20.5169982 C70.2720704,20.5169982 70.0970092,20.4557268 69.9686291,20.3331821 C69.840249,20.2106375 69.7760599,20.038494 69.7760599,19.8167466 L69.7760599,12.4290917 C69.7760599,12.2190151 69.840249,12.0497893 69.9686291,11.9214092 C70.0970092,11.7930291 70.2720704,11.72884 70.4938179,11.72884 C70.7038944,11.72884 70.8702025,11.7930291 70.9927472,11.9214092 C71.1152918,12.0497893 71.1765632,12.2131798 71.1765632,12.4115854 L71.1765632,13.3044062 C71.4566653,12.7792149 71.8476352,12.3794919 72.3494847,12.1052253 C72.8513342,11.8309587 73.4232007,11.6938274 74.0651013,11.6938274 Z M86.9584847,12.1664973 C87.0868648,11.8863952 87.2911029,11.7463463 87.5712049,11.7463463 C87.7462687,11.7463463 87.9038237,11.8047 88.0438748,11.9214092 C88.1839258,12.0381184 88.2539503,12.1840027 88.2539503,12.3590665 C88.2539503,12.4641048 88.2306088,12.5574707 88.1839251,12.6391672 L83.2646573,23.2479796 C83.2063027,23.3763597 83.1216898,23.4755611 83.0108161,23.5455866 C82.8999423,23.6156121 82.7861526,23.6506243 82.6694434,23.6506243 C82.4943796,23.6506243 82.3397422,23.5951883 82.2055267,23.4843146 C82.0713111,23.3734408 82.0042043,23.2304742 82.0042043,23.0554104 C82.0042043,22.9620431 82.0275458,22.8686771 82.0742295,22.7753098 L83.2996699,20.1318598 L79.8334242,12.6391672 C79.7867405,12.5574707 79.763399,12.4699402 79.763399,12.3765728 C79.763399,12.201509 79.8421766,12.0497893 79.999734,11.9214092 C80.1572914,11.7930291 80.3294349,11.72884 80.5161696,11.72884 C80.6328788,11.72884 80.7466685,11.7638523 80.8575422,11.8338778 C80.968416,11.9039033 81.0530289,12.0031046 81.1113835,12.1314847 L84.0349341,18.6963439 L86.9584847,12.1664973 Z M94.2323487,11.6938274 C96.3681269,11.6938274 97.436,12.8142189 97.436,15.0550354 L97.436,19.8167466 C97.436,20.0268231 97.3747286,20.1960489 97.2521839,20.324429 C97.1296393,20.4528091 96.9633312,20.5169982 96.7532546,20.5169982 C96.5431781,20.5169982 96.3739523,20.4528091 96.2455722,20.324429 C96.1171921,20.1960489 96.053003,20.0268231 96.053003,19.8167466 L96.053003,18.9764446 C95.8312555,19.4782941 95.492804,19.8663463 95.0376381,20.1406129 C94.5824723,20.4148795 94.0572888,20.5520108 93.4620719,20.5520108 C92.9135387,20.5520108 92.408779,20.4411387 91.9477777,20.2193913 C91.4867764,19.9976438 91.1220657,19.6883691 90.8536345,19.2915578 C90.5852034,18.8947466 90.4509898,18.4570937 90.4509898,17.978586 C90.4509898,17.3366854 90.6143802,16.8377611 90.941166,16.4817981 C91.2679517,16.125835 91.8048059,15.8690787 92.5517448,15.7115213 C93.2986836,15.5539639 94.3373798,15.4751863 95.6678646,15.4751863 L96.053003,15.4751863 L96.053003,14.8974787 C96.053003,14.1972236 95.9100364,13.6837108 95.6240989,13.3569251 C95.3381613,13.0301394 94.8742493,12.866749 94.2323487,12.866749 C93.4387262,12.866749 92.6334449,13.0826577 91.8164805,13.5144817 C91.5013657,13.7128874 91.2796216,13.8120887 91.1512415,13.8120887 C91.0111904,13.8120887 90.894483,13.7595703 90.8011156,13.6545321 C90.7077483,13.5494938 90.6610653,13.4152802 90.6610653,13.2518874 C90.6610653,13.0884945 90.710666,12.9455279 90.8098688,12.8229832 C90.9090716,12.7004386 91.0695443,12.5749781 91.2912918,12.446598 C91.699774,12.2131796 92.163686,12.0293654 92.6830419,11.8951498 C93.2023978,11.7609342 93.7188283,11.6938274 94.2323487,11.6938274 Z M93.6546411,19.4316081 C94.3548963,19.4316081 94.9296804,19.1952756 95.3790108,18.7226034 C95.8283412,18.2499311 96.053003,17.6401348 96.053003,16.8931959 L96.053003,16.3855135 L95.7378898,16.3855135 C94.7108489,16.3855135 93.928909,16.4292788 93.3920467,16.5168107 C92.8551845,16.6043426 92.4729676,16.7502269 92.2453847,16.9544679 C92.0178017,17.158709 91.904012,17.4592307 91.904012,17.8560419 C91.904012,18.3112078 92.0703201,18.6875893 92.4029413,18.9851977 C92.7355625,19.2828062 93.1527916,19.4316081 93.6546411,19.4316081 Z" id="lavinya" fill="#FFFFFF" fill-rule="nonzero"></path>
                <path d="M3.61914438,9 L3.60229492,9 L3.9814974,8.63693528 C4.00103741,8.61810995 4.0206362,8.59934521 4.04029347,8.58064137 L13.0023332,0 L21.5609974,8.21665074 C24.2818375,10.5994789 26,14.0990903 26,18 C26,25.1797017 20.1797017,31 13,31 C5.82029825,31 0,25.1797017 0,18 C0,14.5070157 1.37760813,11.335789 3.61914438,9 Z" id="Combined-Shape" fill="url(#linearGradient-1)"></path>
            </g>
        </g>
    </g>
</svg>