<?xml version="1.0" standalone="no"?><!DOCTYPE svg PUBLIC "-//W3C//DTD SVG 1.1//EN" "http://www.w3.org/Graphics/SVG/1.1/DTD/svg11.dtd"><svg t="1640432568020" class="icon" viewBox="0 0 1024 1024" version="1.1" xmlns="http://www.w3.org/2000/svg" p-id="2391" xmlns:xlink="http://www.w3.org/1999/xlink" width="200" height="200"><defs><style type="text/css"></style></defs><path d="M512 372.053333c-20.48 0-34.133333-13.653333-34.133333-34.133333V242.346667l-75.093334 75.093333c-13.653333 13.653333-34.133333 13.653333-47.786666 0s-13.653333-34.133333 0-47.786667L488.106667 136.533333c10.24-10.24 23.893333-13.653333 37.546666-6.826666 13.653333 3.413333 20.48 17.066667 20.48 30.72v177.493333c0 20.48-13.653333 34.133333-34.133333 34.133333z m-225.28 314.026667c13.653333-13.653333 13.653333-34.133333 0-47.786667l-68.266667-68.266666H307.2c20.48 0 34.133333-13.653333 34.133333-34.133334s-13.653333-34.133333-34.133333-34.133333H136.533333c-13.653333 0-27.306667 6.826667-30.72 20.48-6.826667 13.653333-3.413333 27.306667 6.826667 37.546667L238.933333 686.08c6.826667 6.826667 17.066667 10.24 23.893334 10.24s20.48-3.413333 23.893333-10.24z m-20.48-232.106667l20.48-20.48c13.653333-13.653333 13.653333-34.133333 0-47.786666-13.653333-13.653333-34.133333-13.653333-47.786667 0l-20.48 20.48c-13.653333 13.653333-13.653333 34.133333 0 47.786666 6.826667 6.826667 17.066667 10.24 23.893334 10.24s17.066667-3.413333 23.893333-10.24z m406.186667-136.533333c13.653333-13.653333 13.653333-34.133333 0-47.786667l-23.893334-23.893333c-13.653333-13.653333-34.133333-13.653333-47.786666 0-13.653333 13.653333-13.653333 34.133333 0 47.786667l23.893333 23.893333c6.826667 6.826667 17.066667 10.24 23.893333 10.24s17.066667-3.413333 23.893334-10.24z m-136.533334 617.813333l133.12-133.12c13.653333-13.653333 13.653333-34.133333 0-47.786666s-34.133333-13.653333-47.786666 0L546.133333 826.026667v-95.573334c0-20.48-13.653333-34.133333-34.133333-34.133333s-34.133333 13.653333-34.133333 34.133333v177.493334c0 13.653333 6.826667 27.306667 20.48 30.72 3.413333 3.413333 10.24 3.413333 13.653333 3.413333 10.24 3.413333 17.066667 0 23.893333-6.826667zM918.186667 546.133333c6.826667-13.653333 3.413333-27.306667-6.826667-37.546666L785.066667 382.293333c-13.653333-13.653333-34.133333-13.653333-47.786667 0s-13.653333 34.133333 0 47.786667l68.266667 68.266667H716.8c-20.48 0-34.133333 13.653333-34.133333 34.133333s13.653333 34.133333 34.133333 34.133333h170.666667c13.653333 3.413333 27.306667-6.826667 30.72-20.48zM785.066667 686.08l20.48-20.48c13.653333-13.653333 13.653333-34.133333 0-47.786667s-34.133333-13.653333-47.786667 0l-20.48 20.48c-13.653333 13.653333-13.653333 34.133333 0 47.786667 6.826667 6.826667 17.066667 10.24 23.893333 10.24s17.066667-3.413333 23.893334-10.24z m-361.813334 136.533333c13.653333-13.653333 13.653333-34.133333 0-47.786666l-20.48-23.893334c-13.653333-13.653333-34.133333-13.653333-47.786666 0-13.653333 13.653333-13.653333 34.133333 0 47.786667l23.893333 23.893333c6.826667 6.826667 17.066667 10.24 23.893333 10.24s17.066667-3.413333 20.48-10.24z m88.746667-320.853333c-20.48 0-34.133333 13.653333-34.133333 34.133333s13.653333 34.133333 34.133333 34.133334 34.133333-13.653333 34.133333-34.133334-13.653333-34.133333-34.133333-34.133333z" fill="#9850FF" p-id="2392"></path></svg>